HIERARCHY
ROOT Hips
{
	OFFSET 0.000000 0.000000 0.000000
	CHANNELS 6 Xposition Yposition Zposition Zrotation Yrotation Xrotation 
	JOINT LeftUpLeg_virtual
	{
		OFFSET 0.000000 0.000000 0.000000
		CHANNELS 3 Zrotation Yrotation Xrotation
		JOINT LeftUpLeg
		{
			OFFSET 8.479694 -4.795517 -0.379053
			CHANNELS 3 Zrotation Yrotation Xrotation
			JOINT LeftLeg
			{
				OFFSET 0.485052 -32.551468 0.112863
				CHANNELS 3 Zrotation Yrotation Xrotation
				JOINT LeftFoot
				{
					OFFSET 0.438033 -32.635670 -3.012641
					CHANNELS 3 Zrotation Yrotation Xrotation
					JOINT LeftToeBase
					{
						OFFSET 0.970169 -13.225353 11.864223
						CHANNELS 3 Zrotation Yrotation Xrotation
						End Site
						{
							OFFSET 0.000000 0.000000 0.000000
						}
					}
				}
			}
		}
	}
	JOINT RightUpLeg_virtual
	{
		OFFSET 0.000000 0.000000 0.000000
		CHANNELS 3 Zrotation Yrotation Xrotation
		JOINT RightUpLeg
		{
			OFFSET -8.479694 -4.795517 -0.379053
			CHANNELS 3 Zrotation Yrotation Xrotation
			JOINT RightLeg
			{
				OFFSET -0.484100 -32.551483 0.112903
				CHANNELS 3 Zrotation Yrotation Xrotation
				JOINT RightFoot
				{
					OFFSET -0.438985 -32.635651 -3.012681
					CHANNELS 3 Zrotation Yrotation Xrotation
					JOINT RightToeBase
					{
						OFFSET -0.970169 -13.225354 11.864223
						CHANNELS 3 Zrotation Yrotation Xrotation
						End Site
						{
							OFFSET 0.000000 0.000000 0.000000
						}
					}
				}
			}
		}
	}
	JOINT Spine_virtual
	{
		OFFSET 0.000000 0.000000 0.000000
		CHANNELS 3 Zrotation Yrotation Xrotation
		JOINT Spine
		{
			OFFSET 0.000000 7.722015 1.166203
			CHANNELS 3 Zrotation Yrotation Xrotation
			JOINT Spine1
			{
				OFFSET 0.000000 12.024086 0.248766
				CHANNELS 3 Zrotation Yrotation Xrotation
				JOINT Spine2
				{
					OFFSET -0.000000 11.503036 -0.491240
					CHANNELS 3 Zrotation Yrotation Xrotation
					JOINT Neck_virtual
					{
						OFFSET 0.000000 0.000000 0.000000
						CHANNELS 3 Zrotation Yrotation Xrotation
						JOINT Neck
						{
							OFFSET 0.000000 18.430687 -3.123054
							CHANNELS 3 Zrotation Yrotation Xrotation
							JOINT Head
							{
								OFFSET -0.000000 9.051071 1.034021
								CHANNELS 3 Zrotation Yrotation Xrotation
								End Site
								{
									OFFSET 0.000000 0.000000 0.000000
								}
							}
						}
					}
					JOINT LeftShoulder_virtual
					{
						OFFSET 0.000000 0.000000 0.000000
						CHANNELS 3 Zrotation Yrotation Xrotation
						JOINT LeftShoulder
						{
							OFFSET 6.197824 13.665230 -4.064723
							CHANNELS 3 Zrotation Yrotation Xrotation
							JOINT LeftArm
							{
								OFFSET 7.778132 -0.187073 -1.709282
								CHANNELS 3 Zrotation Yrotation Xrotation
								JOINT LeftForeArm
								{
									OFFSET 21.954697 0.000000 -2.041093
									CHANNELS 3 Zrotation Yrotation Xrotation
									JOINT LeftHand
									{
										OFFSET 22.992908 0.000000 -0.870901
										CHANNELS 3 Zrotation Yrotation Xrotation
										End Site
										{
											OFFSET 0.000000 0.000000 0.000000
										}
									}
								}
							}
						}
					}
					JOINT RightShoulder_virtual
					{
						OFFSET 0.000000 0.000000 0.000000
						CHANNELS 3 Zrotation Yrotation Xrotation
						JOINT RightShoulder
						{
							OFFSET -6.197824 13.665230 -4.064723
							CHANNELS 3 Zrotation Yrotation Xrotation
							JOINT RightArm
							{
								OFFSET -7.778132 -0.187073 -1.709282
								CHANNELS 3 Zrotation Yrotation Xrotation
								JOINT RightForeArm
								{
									OFFSET -21.954697 0.000000 -2.041093
									CHANNELS 3 Zrotation Yrotation Xrotation
									JOINT RightHand
									{
										OFFSET -22.992908 0.000000 -0.870901
										CHANNELS 3 Zrotation Yrotation Xrotation
										End Site
										{
											OFFSET 0.000000 0.000000 0.000000
										}
									}
								}
							}
						}
					}
				}
			}
		}
	}
}
MOTION
Frames: 14
Frame Time: 0.033333
-2.311427 81.111511 -25.747883 -179.820521 -5.529027 -178.907134 -2.499492 -1.624524 11.733457 0.479974 10.550475 -27.187862 8.602377 6.352572 34.077917 -4.270560 -9.384032 -6.924726 0.000000 0.000000 0.000000 0.574630 -3.617814 11.976649 -0.672444 -0.623108 -27.240977 -1.727141 4.936899 34.842093 8.039067 -1.925598 -6.235738 0.000000 0.000000 0.000000 3.684306 -0.637432 -4.284449 -2.958416 -0.923155 -2.252505 -0.576029 -1.944601 7.683433 0.020275 -0.255183 0.143980 -0.802185 -0.562240 9.504789 -0.146707 -1.300978 -12.073469 0.000000 0.000000 0.000000 0.536629 -0.062279 6.721836 -10.520962 -1.713242 1.165350 -57.529973 -0.249846 16.071000 2.410491 -43.184697 5.138492 0.000000 0.000000 0.000000 -3.567536 1.366783 6.014689 29.738569 0.612751 0.537171 51.849192 -0.897664 23.217223 -8.146962 34.434563 -4.332915 0.000000 0.000000 0.000000 
-2.139668 81.138420 -25.807386 -179.647212 -6.230666 -178.433569 -2.914863 -0.732952 12.587474 0.530924 10.947799 -26.599169 9.413034 6.272510 34.586220 -3.257318 -8.404742 -6.158199 0.000000 0.000000 0.000000 0.555352 -3.638913 12.247206 -0.665477 -0.846890 -27.145757 -1.920544 4.861680 34.975001 7.643358 -2.400199 -5.959105 0.000000 0.000000 0.000000 3.539664 -0.691414 -4.565566 -2.807900 -1.128726 -2.453516 -0.520185 -2.137899 7.534878 -0.109895 -0.358245 0.238899 -0.770948 -0.559668 9.537353 -0.124977 -1.239217 -12.043241 0.000000 0.000000 0.000000 0.503107 -0.223366 6.876021 -10.410993 -1.847067 1.105907 -57.477101 -0.472958 15.760501 2.422343 -43.187870 5.126224 0.000000 0.000000 0.000000 -3.629403 1.295253 6.020118 29.793955 0.503072 0.521656 51.977781 -0.756158 23.003841 -8.227678 34.628192 -4.420785 0.000000 0.000000 0.000000 
-1.971732 81.179520 -25.734451 -179.661337 -6.025222 -178.453828 -2.908404 -0.596176 12.783414 0.712147 10.466958 -26.844918 9.219382 6.288420 34.666014 -2.972537 -8.231727 -6.280320 0.000000 0.000000 0.000000 0.628323 -3.468863 12.377220 -0.604406 -0.968523 -27.532545 -1.850470 4.853137 35.379127 7.545294 -2.515822 -5.954404 0.000000 0.000000 0.000000 3.353794 -0.960767 -4.217045 -2.755126 -0.889397 -2.549298 -0.530675 -2.399234 7.355903 -0.066436 -0.491259 0.350614 -0.899538 -0.728979 9.464745 -0.190400 -1.288069 -11.839923 0.000000 0.000000 0.000000 0.474947 -0.166364 6.787620 -10.334052 -1.567754 1.195746 -57.789773 -0.802675 15.101367 2.713169 -42.912091 4.839371 0.000000 0.000000 0.000000 -3.688858 1.559771 6.215357 29.810798 0.805311 0.622056 52.050095 -0.459543 22.994433 -8.222250 35.027457 -4.457881 0.000000 0.000000 0.000000 
-1.818641 81.214676 -25.482307 -179.674164 -5.951313 -178.480998 -2.858862 -0.536973 12.935417 0.959601 9.688145 -27.190140 8.830521 6.308304 34.803905 -2.547031 -7.941918 -6.415955 0.000000 0.000000 0.000000 0.738422 -3.338762 12.468818 -0.576259 -1.170845 -28.130756 -1.736041 4.879535 36.011746 7.415603 -2.645211 -5.948327 0.000000 0.000000 0.000000 3.184017 -0.587955 -3.750651 -2.636515 -1.074138 -2.457954 -0.583676 -2.328883 7.320180 -0.103812 -0.267654 0.305687 -0.806907 -0.671906 9.317918 -0.102167 -1.298920 -12.061944 0.000000 0.000000 0.000000 0.472031 -0.399066 6.688577 -10.050190 -1.911866 1.333186 -57.919868 -1.505161 14.812203 2.635787 -42.123416 4.974680 0.000000 0.000000 0.000000 -3.642874 1.345393 5.898288 29.947118 0.889009 0.938541 52.096520 -0.491639 23.104689 -8.460280 35.405290 -4.755336 0.000000 0.000000 0.000000 
-1.709000 81.245865 -25.022198 -179.712427 -5.955907 -178.518114 -2.761718 -0.614790 13.053309 1.145750 8.702837 -27.655216 8.383590 6.384212 34.997514 -2.214477 -7.482070 -6.547293 0.000000 0.000000 0.000000 0.879636 -3.310523 12.518988 -0.639991 -1.414285 -28.882418 -1.614583 4.910099 36.733994 7.257663 -2.780145 -5.904915 0.000000 0.000000 0.000000 3.038307 -0.548842 -3.156125 -2.427909 -1.013231 -2.191349 -0.611469 -2.350165 7.486208 -0.089472 -0.337452 0.186020 -0.953653 -0.825667 9.074750 -0.267951 -0.766212 -12.653364 0.000000 0.000000 0.000000 0.393416 -0.411371 6.373409 -9.710721 -2.101618 1.447608 -58.059470 -2.502406 14.717475 2.420245 -40.955816 5.320691 0.000000 0.000000 0.000000 -3.662216 1.091367 5.652201 29.887788 1.056428 1.038555 52.071528 -0.066563 23.236753 -8.092563 35.657822 -4.496728 0.000000 0.000000 0.000000 
-1.649552 81.270851 -24.344849 -179.746127 -6.031300 -178.578315 -2.626916 -0.835943 13.221738 1.165835 7.619299 -28.341923 7.932460 6.431198 35.210653 -1.593459 -6.898089 -6.664095 0.000000 0.000000 0.000000 1.065951 -3.400164 12.591028 -0.799466 -1.717978 -29.803667 -1.493269 4.878077 37.456901 7.042111 -2.945822 -5.801624 0.000000 0.000000 0.000000 2.954509 -0.916408 -2.194766 -2.145965 -0.702909 -1.832617 -0.656626 -2.753372 7.074736 -0.108492 -0.396405 0.293876 -0.976264 -0.962851 8.988435 -0.279400 -1.238898 -12.831817 0.000000 0.000000 0.000000 0.404563 -0.365862 6.271453 -9.444568 -2.211417 1.696949 -58.326182 -3.819339 14.572651 2.351931 -39.900920 5.569863 0.000000 0.000000 0.000000 -3.622359 1.224748 5.785598 29.520972 1.680251 1.238843 52.153193 0.688407 23.124145 -7.887097 35.575443 -4.493765 0.000000 0.000000 0.000000 
-1.572901 81.275108 -23.452145 -179.817011 -6.097832 -178.647778 -2.426835 -1.152601 13.497786 0.973170 6.497409 -29.337759 7.631149 6.430964 35.434711 -0.699769 -6.178114 -6.747623 0.000000 0.000000 0.000000 1.287898 -3.544131 12.768410 -1.009021 -2.111944 -30.962221 -1.412635 4.646469 38.141323 6.740868 -3.193731 -5.643416 0.000000 0.000000 0.000000 2.864859 -0.736516 -1.136912 -1.866337 -0.636572 -1.305689 -0.739501 -2.569148 7.049102 -0.067467 -0.415947 0.182145 -0.927229 -1.036882 8.825082 -0.352554 -0.147073 -13.641487 0.000000 0.000000 0.000000 0.416246 -0.505673 6.161174 -9.006719 -2.908470 2.146718 -58.437726 -5.779423 14.941928 1.928350 -39.150969 6.261878 0.000000 0.000000 0.000000 -3.490249 0.943349 5.578045 29.233380 2.115281 1.626970 52.064517 1.583533 23.034091 -7.871116 35.565683 -4.947923 0.000000 0.000000 0.000000 
-1.460981 81.259804 -22.326294 -179.957671 -6.050826 -178.738975 -2.131306 -1.438236 13.895321 0.640687 5.418796 -30.670100 7.579613 6.350357 35.725250 -0.039042 -5.248874 -6.738506 0.000000 0.000000 0.000000 1.502804 -3.632368 13.108419 -1.244869 -2.562051 -32.421672 -1.364536 4.324540 38.815869 6.383012 -3.483367 -5.406666 0.000000 0.000000 0.000000 2.607046 -0.759942 0.305921 -1.516970 -0.447007 -0.672152 -0.711281 -2.602806 6.738338 -0.112318 -0.308822 0.253249 -0.956632 -1.191298 8.596141 -0.366145 -0.286617 -14.126352 0.000000 0.000000 0.000000 0.339314 -0.625228 6.099785 -8.567960 -3.445052 2.398274 -58.596398 -7.646690 15.322196 1.713427 -39.221508 6.744296 0.000000 0.000000 0.000000 -3.524680 0.790898 5.475627 28.659139 2.675068 1.934199 52.023082 2.831047 22.494086 -7.552313 35.476412 -5.167538 0.000000 0.000000 0.000000 
-1.287446 81.191795 -20.967571 179.896391 -5.942309 -178.844897 -1.610136 -1.656436 14.403595 -0.163192 4.307157 -32.409890 7.796798 6.246049 36.177121 0.647272 -4.652167 -6.637064 0.000000 0.000000 0.000000 1.657143 -3.604620 13.600785 -1.457198 -3.044857 -34.303163 -1.332198 3.961273 39.574724 5.966052 -3.780560 -5.146427 0.000000 0.000000 0.000000 2.317093 -0.611132 1.992289 -1.226591 -0.186255 0.156833 -0.745913 -2.620601 6.549554 -0.090330 -0.250827 0.210176 -0.907714 -1.255688 8.316221 -0.320229 0.109447 -14.936734 0.000000 0.000000 0.000000 0.343431 -0.783960 5.851737 -8.147381 -4.079185 2.882406 -58.800054 -9.584231 15.309779 1.285212 -40.058076 7.393964 0.000000 0.000000 0.000000 -3.520774 0.711653 5.135508 28.094139 3.211587 2.423732 51.884740 4.160201 21.866352 -7.456251 35.655654 -5.631593 0.000000 0.000000 0.000000 
-1.010788 81.052338 -19.334335 179.925337 -5.689326 -178.972144 0.126950 -1.985735 14.970503 -1.851326 2.932438 -34.503930 7.959387 6.233770 36.875956 1.383457 -4.019124 -6.417317 0.000000 0.000000 0.000000 1.915288 -3.437209 14.119802 -1.383631 -3.441320 -36.651318 -1.205426 3.330261 40.474595 5.511415 -4.044811 -4.888910 0.000000 0.000000 0.000000 2.083224 -0.715976 4.059234 -0.944353 0.112195 1.210101 -0.760158 -2.592997 6.321130 -0.033177 -0.148973 0.199339 -1.000686 -1.400014 7.960239 -0.281035 0.423913 -15.849935 0.000000 0.000000 0.000000 0.271981 -0.783421 5.588591 -7.736222 -4.526321 3.277898 -58.906570 -11.550343 14.700403 0.892961 -41.664174 7.942748 0.000000 0.000000 0.000000 -3.622315 0.669692 4.844313 27.548374 3.783741 2.833250 51.734161 5.839858 21.250564 -7.271711 36.098455 -6.296721 0.000000 0.000000 0.000000 
-0.660356 80.829636 -17.437536 179.885791 -5.216458 -179.138759 -1.686798 -2.020959 15.623284 0.592453 2.549111 -36.893844 7.332484 6.118895 37.898220 2.046343 -3.451399 -6.251959 0.000000 0.000000 0.000000 1.972521 -3.262626 14.589257 -1.206709 -3.858141 -39.491228 -1.112870 2.536243 41.559929 4.896600 -4.357975 -4.618863 0.000000 0.000000 0.000000 1.842087 -0.589445 6.514244 -0.782480 0.356193 2.522627 -0.851114 -2.625925 6.065094 -0.057437 -0.178851 0.162617 -0.978190 -1.390473 7.531725 -0.180905 0.780031 -16.804673 0.000000 0.000000 0.000000 0.245714 -0.797447 5.304338 -7.290198 -4.843122 3.672475 -58.751238 -13.428402 13.514806 0.294203 -44.141361 8.609368 0.000000 0.000000 0.000000 -3.580930 0.521069 4.556508 26.992675 4.498877 3.107684 51.673823 7.794318 20.411416 -6.648248 36.742340 -6.565159 0.000000 0.000000 0.000000 
-0.275444 80.501732 -15.300338 179.661036 -4.578571 -179.225243 -2.111513 -2.257821 16.345047 1.524252 1.958428 -39.661645 6.507205 5.599801 39.230165 2.500306 -3.111559 -5.968592 0.000000 0.000000 0.000000 1.371376 -3.199685 15.098268 -0.451682 -4.381578 -42.712175 -1.059191 1.184291 43.019182 4.053269 -4.812269 -4.262816 0.000000 0.000000 0.000000 1.429108 -0.686194 9.231691 -0.765452 0.851744 4.005033 -0.953637 -2.514505 5.792266 0.000246 -0.115365 0.098873 -1.009036 -1.382966 7.124624 -0.061419 1.187413 -17.890248 0.000000 0.000000 0.000000 0.216346 -0.872612 5.007159 -6.704851 -5.408551 4.109580 -58.316292 -15.480035 12.269882 -0.403185 -46.929287 9.276409 0.000000 0.000000 0.000000 -3.575048 0.424881 4.061386 26.695607 5.088035 3.616999 51.463047 9.985153 19.717337 -6.542019 37.540277 -7.393469 0.000000 0.000000 0.000000 
0.106114 80.057716 -13.054406 179.603717 -3.744528 -179.221650 -2.283761 -2.545253 17.120708 2.516544 1.557492 -42.818357 5.834854 5.010365 40.922044 2.705023 -3.154035 -5.709011 0.000000 0.000000 0.000000 2.032502 -3.684203 15.434814 0.215368 -5.972605 -46.472324 -0.875717 1.401596 44.996467 3.415977 -4.882732 -4.121524 0.000000 0.000000 0.000000 1.213631 -0.957021 12.133180 -0.933054 1.166906 5.603499 -1.091148 -2.415506 5.473196 0.016447 -0.054853 0.074857 -1.095317 -1.392499 6.721480 -0.018838 1.526650 -18.932733 0.000000 0.000000 0.000000 0.133074 -0.796743 4.628125 -5.993443 -5.746805 4.396814 -57.617024 -17.462142 10.921896 -1.224701 -50.101306 10.019659 0.000000 0.000000 0.000000 -3.678720 0.506665 3.593166 26.312423 5.851269 4.034515 51.219763 12.495362 19.103139 -6.227086 38.369291 -7.867395 0.000000 0.000000 0.000000 
0.454159 79.478683 -10.827387 179.466021 -2.766533 -179.181448 -2.607559 -2.809646 17.944256 3.394281 1.229323 -46.373474 5.316130 4.546837 43.033098 2.868905 -3.363190 -5.580459 0.000000 0.000000 0.000000 3.043331 -4.789183 15.965053 0.274684 -7.170845 -50.113228 -0.015735 1.997482 46.184185 3.647340 -3.724569 -4.560610 0.000000 0.000000 0.000000 0.753705 -1.269490 15.142292 -1.203670 1.481503 7.254019 -1.216855 -2.283646 5.206040 0.036038 -0.171393 0.082732 -1.115427 -1.358520 6.327125 -0.007726 1.841765 -20.039452 0.000000 0.000000 0.000000 0.133311 -0.603567 4.057582 -5.277302 -6.155396 4.806257 -56.629628 -19.467673 9.585196 -1.770238 -53.106398 10.368856 0.000000 0.000000 0.000000 -3.628989 0.729268 3.022969 25.693128 6.723581 4.395451 50.707106 15.133908 18.455181 -5.694509 39.228112 -7.974307 0.000000 0.000000 0.000000 
